<mxfile host="Electron" modified="2023-12-29T16:07:05.705Z" agent="Mozilla/5.0 (Windows NT 10.0; Win64; x64) AppleWebKit/537.36 (KHTML, like Gecko) draw.io/22.1.15 Chrome/120.0.6099.109 Electron/28.1.0 Safari/537.36" etag="paaHggdYfYNrBxJ749Me" version="22.1.15" type="device">
  <diagram name="Page-1" id="tkQchYIhLxaaPEvXllTq">
    <mxGraphModel dx="863" dy="505" grid="0" gridSize="10" guides="1" tooltips="1" connect="1" arrows="1" fold="1" page="1" pageScale="1" pageWidth="850" pageHeight="1100" math="0" shadow="0">
      <root>
        <mxCell id="0" />
        <mxCell id="1" parent="0" />
        <mxCell id="Rmh9Vd90xiTMsVKt5ZJG-1" value="" style="points=[[0.13,0.02,0],[0.5,0,0],[0.87,0.02,0],[0.885,0.4,0],[0.985,0.985,0],[0.5,1,0],[0.015,0.985,0],[0.115,0.4,0]];verticalLabelPosition=bottom;sketch=0;html=1;verticalAlign=top;aspect=fixed;align=center;pointerEvents=1;shape=mxgraph.cisco19.laptop;fillColor=#005073;strokeColor=none;" vertex="1" parent="1">
          <mxGeometry x="80" y="290" width="85.71" height="60" as="geometry" />
        </mxCell>
        <mxCell id="Rmh9Vd90xiTMsVKt5ZJG-2" value="" style="points=[[0.13,0.02,0],[0.5,0,0],[0.87,0.02,0],[0.885,0.4,0],[0.985,0.985,0],[0.5,1,0],[0.015,0.985,0],[0.115,0.4,0]];verticalLabelPosition=bottom;sketch=0;html=1;verticalAlign=top;aspect=fixed;align=center;pointerEvents=1;shape=mxgraph.cisco19.laptop;fillColor=#005073;strokeColor=none;" vertex="1" parent="1">
          <mxGeometry x="150" y="180" width="85.71" height="60" as="geometry" />
        </mxCell>
        <mxCell id="Rmh9Vd90xiTMsVKt5ZJG-3" value="" style="points=[[0.13,0.02,0],[0.5,0,0],[0.87,0.02,0],[0.885,0.4,0],[0.985,0.985,0],[0.5,1,0],[0.015,0.985,0],[0.115,0.4,0]];verticalLabelPosition=bottom;sketch=0;html=1;verticalAlign=top;aspect=fixed;align=center;pointerEvents=1;shape=mxgraph.cisco19.laptop;fillColor=#005073;strokeColor=none;" vertex="1" parent="1">
          <mxGeometry x="80" y="390" width="85.71" height="60" as="geometry" />
        </mxCell>
        <mxCell id="Rmh9Vd90xiTMsVKt5ZJG-4" value="" style="points=[[0.13,0.02,0],[0.5,0,0],[0.87,0.02,0],[0.885,0.4,0],[0.985,0.985,0],[0.5,1,0],[0.015,0.985,0],[0.115,0.4,0]];verticalLabelPosition=bottom;sketch=0;html=1;verticalAlign=top;aspect=fixed;align=center;pointerEvents=1;shape=mxgraph.cisco19.laptop;fillColor=#005073;strokeColor=none;" vertex="1" parent="1">
          <mxGeometry x="165.71" y="480" width="85.71" height="60" as="geometry" />
        </mxCell>
        <mxCell id="Rmh9Vd90xiTMsVKt5ZJG-7" value="" style="image;aspect=fixed;perimeter=ellipsePerimeter;html=1;align=center;shadow=0;dashed=0;spacingTop=3;image=img/lib/active_directory/generic_server.svg;" vertex="1" parent="1">
          <mxGeometry x="350" y="250" width="89.6" height="160" as="geometry" />
        </mxCell>
        <mxCell id="Rmh9Vd90xiTMsVKt5ZJG-12" value="" style="group" vertex="1" connectable="0" parent="1">
          <mxGeometry x="562" y="276" width="90" height="112" as="geometry" />
        </mxCell>
        <mxCell id="Rmh9Vd90xiTMsVKt5ZJG-9" value="" style="image;aspect=fixed;perimeter=ellipsePerimeter;html=1;align=center;shadow=0;dashed=0;spacingTop=3;image=img/lib/active_directory/database.svg;" vertex="1" parent="Rmh9Vd90xiTMsVKt5ZJG-12">
          <mxGeometry y="47.25" width="79.2808988764045" height="58.66786516853933" as="geometry" />
        </mxCell>
        <mxCell id="Rmh9Vd90xiTMsVKt5ZJG-10" value="" style="image;aspect=fixed;perimeter=ellipsePerimeter;html=1;align=center;shadow=0;dashed=0;spacingTop=3;image=img/lib/active_directory/database.svg;" vertex="1" parent="Rmh9Vd90xiTMsVKt5ZJG-12">
          <mxGeometry y="24.5" width="79.2808988764045" height="58.66786516853933" as="geometry" />
        </mxCell>
        <mxCell id="Rmh9Vd90xiTMsVKt5ZJG-11" value="" style="image;aspect=fixed;perimeter=ellipsePerimeter;html=1;align=center;shadow=0;dashed=0;spacingTop=3;image=img/lib/active_directory/database.svg;" vertex="1" parent="Rmh9Vd90xiTMsVKt5ZJG-12">
          <mxGeometry width="79.2808988764045" height="58.66786516853933" as="geometry" />
        </mxCell>
        <mxCell id="Rmh9Vd90xiTMsVKt5ZJG-14" value="" style="endArrow=none;html=1;rounded=0;entryX=0.91;entryY=0.997;entryDx=0;entryDy=0;entryPerimeter=0;" edge="1" parent="1" target="Rmh9Vd90xiTMsVKt5ZJG-2">
          <mxGeometry width="50" height="50" relative="1" as="geometry">
            <mxPoint x="350" y="313" as="sourcePoint" />
            <mxPoint x="448" y="289" as="targetPoint" />
          </mxGeometry>
        </mxCell>
        <mxCell id="Rmh9Vd90xiTMsVKt5ZJG-15" value="" style="endArrow=none;html=1;rounded=0;entryX=1.045;entryY=0.63;entryDx=0;entryDy=0;entryPerimeter=0;exitX=-0.031;exitY=0.556;exitDx=0;exitDy=0;exitPerimeter=0;" edge="1" parent="1" source="Rmh9Vd90xiTMsVKt5ZJG-7" target="Rmh9Vd90xiTMsVKt5ZJG-1">
          <mxGeometry width="50" height="50" relative="1" as="geometry">
            <mxPoint x="360" y="323" as="sourcePoint" />
            <mxPoint x="238" y="250" as="targetPoint" />
          </mxGeometry>
        </mxCell>
        <mxCell id="Rmh9Vd90xiTMsVKt5ZJG-16" value="" style="endArrow=none;html=1;rounded=0;entryX=1.036;entryY=0.47;entryDx=0;entryDy=0;entryPerimeter=0;exitX=-0.067;exitY=0.746;exitDx=0;exitDy=0;exitPerimeter=0;" edge="1" parent="1" source="Rmh9Vd90xiTMsVKt5ZJG-7" target="Rmh9Vd90xiTMsVKt5ZJG-3">
          <mxGeometry width="50" height="50" relative="1" as="geometry">
            <mxPoint x="370" y="333" as="sourcePoint" />
            <mxPoint x="248" y="260" as="targetPoint" />
          </mxGeometry>
        </mxCell>
        <mxCell id="Rmh9Vd90xiTMsVKt5ZJG-17" value="" style="endArrow=none;html=1;rounded=0;entryX=1.027;entryY=0.297;entryDx=0;entryDy=0;entryPerimeter=0;exitX=0.013;exitY=0.946;exitDx=0;exitDy=0;exitPerimeter=0;" edge="1" parent="1" source="Rmh9Vd90xiTMsVKt5ZJG-7" target="Rmh9Vd90xiTMsVKt5ZJG-4">
          <mxGeometry width="50" height="50" relative="1" as="geometry">
            <mxPoint x="380" y="343" as="sourcePoint" />
            <mxPoint x="258" y="270" as="targetPoint" />
          </mxGeometry>
        </mxCell>
        <mxCell id="Rmh9Vd90xiTMsVKt5ZJG-18" value="" style="endArrow=none;html=1;rounded=0;entryX=1;entryY=0.5;entryDx=0;entryDy=0;exitX=0.01;exitY=0.934;exitDx=0;exitDy=0;exitPerimeter=0;" edge="1" parent="1" source="Rmh9Vd90xiTMsVKt5ZJG-11" target="Rmh9Vd90xiTMsVKt5ZJG-7">
          <mxGeometry width="50" height="50" relative="1" as="geometry">
            <mxPoint x="390" y="353" as="sourcePoint" />
            <mxPoint x="268" y="280" as="targetPoint" />
          </mxGeometry>
        </mxCell>
        <mxCell id="Rmh9Vd90xiTMsVKt5ZJG-19" value="" style="endArrow=none;dashed=1;html=1;rounded=0;" edge="1" parent="1">
          <mxGeometry width="50" height="50" relative="1" as="geometry">
            <mxPoint x="300" y="540" as="sourcePoint" />
            <mxPoint x="302" y="120" as="targetPoint" />
          </mxGeometry>
        </mxCell>
        <mxCell id="Rmh9Vd90xiTMsVKt5ZJG-20" value="" style="endArrow=none;dashed=1;html=1;rounded=0;" edge="1" parent="1">
          <mxGeometry width="50" height="50" relative="1" as="geometry">
            <mxPoint x="486" y="540" as="sourcePoint" />
            <mxPoint x="486" y="120" as="targetPoint" />
          </mxGeometry>
        </mxCell>
        <mxCell id="Rmh9Vd90xiTMsVKt5ZJG-21" value="&lt;h2&gt;Client side&lt;/h2&gt;" style="text;html=1;align=center;verticalAlign=middle;resizable=0;points=[];autosize=1;strokeColor=none;fillColor=none;" vertex="1" parent="1">
          <mxGeometry x="109" y="114.5" width="109" height="63" as="geometry" />
        </mxCell>
        <mxCell id="Rmh9Vd90xiTMsVKt5ZJG-22" value="&lt;h2&gt;Business Logic&lt;/h2&gt;&lt;h2&gt;Web Server&lt;/h2&gt;" style="text;html=1;align=center;verticalAlign=middle;resizable=0;points=[];autosize=1;strokeColor=none;fillColor=none;" vertex="1" parent="1">
          <mxGeometry x="319.3" y="96" width="151" height="100" as="geometry" />
        </mxCell>
        <mxCell id="Rmh9Vd90xiTMsVKt5ZJG-23" value="&lt;h2&gt;Data Layer&lt;/h2&gt;&lt;h2&gt;Database Server&lt;/h2&gt;" style="text;html=1;align=center;verticalAlign=middle;resizable=0;points=[];autosize=1;strokeColor=none;fillColor=none;" vertex="1" parent="1">
          <mxGeometry x="527.5" y="96" width="159" height="100" as="geometry" />
        </mxCell>
      </root>
    </mxGraphModel>
  </diagram>
</mxfile>
